<svg xmlns="http://www.w3.org/2000/svg" width="500" height="500">
  <g fill="none" stroke="#1e293b" stroke-width="1" stroke-linecap="round" stroke-linejoin="round">

    <!-- ── Row 1 ──────────────────────────────────────────── -->

    <!-- 1. sparkle 48px (scale=2) -->
    <g transform="translate(30,30) rotate(-15,24,24) scale(2)">
      <path d="M12 3c.375 0 .711 .231 .846 .581l1.65 4.29a2.85 2.85 0 0 0 1.632 1.633l4.291 1.65a.906 .906 0 0 1 0 1.692l-4.29 1.65a2.84 2.84 0 0 0 -1.633 1.632l-1.65 4.291a.906 .906 0 0 1 -1.692 0l-1.65 -4.29a2.84 2.84 0 0 0 -1.632 -1.633l-4.291 -1.65a.906 .906 0 0 1 0 -1.692l4.29 -1.65a2.84 2.84 0 0 0 1.633 -1.632l1.65 -4.291a.91 .91 0 0 1 .846 -.581"/>
    </g>

    <!-- 2. map-pin 36px (scale=1.5) -->
    <g transform="translate(115,25) rotate(10,18,18) scale(1.5)">
      <path d="M9 11a3 3 0 1 0 6 0a3 3 0 0 0 -6 0"/>
      <path d="M17.657 16.657l-4.243 4.243a2 2 0 0 1 -2.827 0l-4.244 -4.243a8 8 0 1 1 11.314 0"/>
    </g>

    <!-- 3. school 60px (scale=2.5) -->
    <g transform="translate(200,30) rotate(-8,30,30) scale(2.5)">
      <path d="M22 9l-10 -4l-10 4l10 4l10 -4v6"/>
      <path d="M6 10.6v5.4a6 3 0 0 0 12 0v-5.4"/>
    </g>

    <!-- 4. rocket 48px (scale=2) -->
    <g transform="translate(310,28) rotate(15,24,24) scale(2)">
      <path d="M4 13a8 8 0 0 1 7 7a6 6 0 0 0 3 -5a9 9 0 0 0 6 -8a3 3 0 0 0 -3 -3a9 9 0 0 0 -8 6a6 6 0 0 0 -5 3"/>
      <path d="M7 14a6 6 0 0 0 -3 6a6 6 0 0 0 6 -3"/>
      <path d="M14 9a1 1 0 1 0 2 0a1 1 0 1 0 -2 0"/>
    </g>

    <!-- 5. star 36px (scale=1.5) -->
    <g transform="translate(395,30) rotate(-20,18,18) scale(1.5)">
      <path d="M12 17.75l-6.172 3.245l1.179 -6.873l-5 -4.867l6.9 -1l3.086 -6.253l3.086 6.253l6.9 1l-5 4.867l1.179 6.873l-6.158 -3.245"/>
    </g>

    <!-- ── Row 2 ──────────────────────────────────────────── -->

    <!-- 6. heart 44px (scale=1.833) -->
    <g transform="translate(30,135) rotate(8,22,22) scale(1.833)">
      <path d="M19.5 12.572l-7.5 7.428l-7.5 -7.428a5 5 0 1 1 7.5 -6.566a5 5 0 1 1 7.5 6.572"/>
    </g>

    <!-- 7. award 60px (scale=2.5) -->
    <g transform="translate(110,140) rotate(-12,30,30) scale(2.5)">
      <path d="M6 9a6 6 0 1 0 12 0a6 6 0 1 0 -12 0"/>
      <path d="M12 15l3.4 5.89l1.598 -3.233l3.598 .232l-3.4 -5.889"/>
      <path d="M6.802 12l-3.4 5.89l3.598 -.233l1.598 3.232l3.4 -5.889"/>
    </g>

    <!-- 8. diamond 36px (scale=1.5) -->
    <g transform="translate(220,138) rotate(20,18,18) scale(1.5)">
      <path d="M6 5h12l3 5l-8.5 9.5a.7 .7 0 0 1 -1 0l-8.5 -9.5l3 -5"/>
      <path d="M10 12l-2 -2.2l.6 -1"/>
    </g>

    <!-- 9. seedling 48px (scale=2) -->
    <g transform="translate(298,142) rotate(-8,24,24) scale(2)">
      <path d="M12 10a6 6 0 0 0 -6 -6h-3v2a6 6 0 0 0 6 6h3"/>
      <path d="M12 14a6 6 0 0 1 6 -6h3v1a6 6 0 0 1 -6 6h-3"/>
      <path d="M12 20l0 -10"/>
    </g>

    <!-- 10. sparkle 36px (scale=1.5) -->
    <g transform="translate(395,135) rotate(12,18,18) scale(1.5)">
      <path d="M12 3c.375 0 .711 .231 .846 .581l1.65 4.29a2.85 2.85 0 0 0 1.632 1.633l4.291 1.65a.906 .906 0 0 1 0 1.692l-4.29 1.65a2.84 2.84 0 0 0 -1.633 1.632l-1.65 4.291a.906 .906 0 0 1 -1.692 0l-1.65 -4.29a2.84 2.84 0 0 0 -1.632 -1.633l-4.291 -1.65a.906 .906 0 0 1 0 -1.692l4.29 -1.65a2.84 2.84 0 0 0 1.633 -1.632l1.65 -4.291a.91 .91 0 0 1 .846 -.581"/>
    </g>

    <!-- 11. school 36px (scale=1.5) -->
    <g transform="translate(455,130) rotate(-5,18,18) scale(1.5)">
      <path d="M22 9l-10 -4l-10 4l10 4l10 -4v6"/>
      <path d="M6 10.6v5.4a6 3 0 0 0 12 0v-5.4"/>
    </g>

    <!-- ── Row 3 ──────────────────────────────────────────── -->

    <!-- 12. rocket 44px (scale=1.833) -->
    <g transform="translate(30,248) rotate(-10,22,22) scale(1.833)">
      <path d="M4 13a8 8 0 0 1 7 7a6 6 0 0 0 3 -5a9 9 0 0 0 6 -8a3 3 0 0 0 -3 -3a9 9 0 0 0 -8 6a6 6 0 0 0 -5 3"/>
      <path d="M7 14a6 6 0 0 0 -3 6a6 6 0 0 0 6 -3"/>
      <path d="M14 9a1 1 0 1 0 2 0a1 1 0 1 0 -2 0"/>
    </g>

    <!-- 13. star 60px (scale=2.5) -->
    <g transform="translate(115,252) rotate(15,30,30) scale(2.5)">
      <path d="M12 17.75l-6.172 3.245l1.179 -6.873l-5 -4.867l6.9 -1l3.086 -6.253l3.086 6.253l6.9 1l-5 4.867l1.179 6.873l-6.158 -3.245"/>
    </g>

    <!-- 14. heart 48px (scale=2) -->
    <g transform="translate(225,250) rotate(-18,24,24) scale(2)">
      <path d="M19.5 12.572l-7.5 7.428l-7.5 -7.428a5 5 0 1 1 7.5 -6.566a5 5 0 1 1 7.5 6.572"/>
    </g>

    <!-- 15. award 36px (scale=1.5) -->
    <g transform="translate(315,258) rotate(10,18,18) scale(1.5)">
      <path d="M6 9a6 6 0 1 0 12 0a6 6 0 1 0 -12 0"/>
      <path d="M12 15l3.4 5.89l1.598 -3.233l3.598 .232l-3.4 -5.889"/>
      <path d="M6.802 12l-3.4 5.89l3.598 -.233l1.598 3.232l3.4 -5.889"/>
    </g>

    <!-- 16. diamond 48px (scale=2) -->
    <g transform="translate(380,248) rotate(-8,24,24) scale(2)">
      <path d="M6 5h12l3 5l-8.5 9.5a.7 .7 0 0 1 -1 0l-8.5 -9.5l3 -5"/>
      <path d="M10 12l-2 -2.2l.6 -1"/>
    </g>

    <!-- 17. seedling 36px (scale=1.5) -->
    <g transform="translate(450,255) rotate(15,18,18) scale(1.5)">
      <path d="M12 10a6 6 0 0 0 -6 -6h-3v2a6 6 0 0 0 6 6h3"/>
      <path d="M12 14a6 6 0 0 1 6 -6h3v1a6 6 0 0 1 -6 6h-3"/>
      <path d="M12 20l0 -10"/>
    </g>

    <!-- ── Row 4 ──────────────────────────────────────────── -->

    <!-- 18. sparkle 44px (scale=1.833) -->
    <g transform="translate(35,362) rotate(5,22,22) scale(1.833)">
      <path d="M12 3c.375 0 .711 .231 .846 .581l1.65 4.29a2.85 2.85 0 0 0 1.632 1.633l4.291 1.65a.906 .906 0 0 1 0 1.692l-4.29 1.65a2.84 2.84 0 0 0 -1.633 1.632l-1.65 4.291a.906 .906 0 0 1 -1.692 0l-1.65 -4.29a2.84 2.84 0 0 0 -1.632 -1.633l-4.291 -1.65a.906 .906 0 0 1 0 -1.692l4.29 -1.65a2.84 2.84 0 0 0 1.633 -1.632l1.65 -4.291a.91 .91 0 0 1 .846 -.581"/>
    </g>

    <!-- 19. map-pin 60px (scale=2.5) -->
    <g transform="translate(110,368) rotate(-12,30,30) scale(2.5)">
      <path d="M9 11a3 3 0 1 0 6 0a3 3 0 0 0 -6 0"/>
      <path d="M17.657 16.657l-4.243 4.243a2 2 0 0 1 -2.827 0l-4.244 -4.243a8 8 0 1 1 11.314 0"/>
    </g>

    <!-- 20. school 48px (scale=2) -->
    <g transform="translate(220,365) rotate(18,24,24) scale(2)">
      <path d="M22 9l-10 -4l-10 4l10 4l10 -4v6"/>
      <path d="M6 10.6v5.4a6 3 0 0 0 12 0v-5.4"/>
    </g>

    <!-- 21. rocket 36px (scale=1.5) -->
    <g transform="translate(315,370) rotate(-15,18,18) scale(1.5)">
      <path d="M4 13a8 8 0 0 1 7 7a6 6 0 0 0 3 -5a9 9 0 0 0 6 -8a3 3 0 0 0 -3 -3a9 9 0 0 0 -8 6a6 6 0 0 0 -5 3"/>
      <path d="M7 14a6 6 0 0 0 -3 6a6 6 0 0 0 6 -3"/>
      <path d="M14 9a1 1 0 1 0 2 0a1 1 0 1 0 -2 0"/>
    </g>

    <!-- 22. star 48px (scale=2) -->
    <g transform="translate(375,362) rotate(8,24,24) scale(2)">
      <path d="M12 17.75l-6.172 3.245l1.179 -6.873l-5 -4.867l6.9 -1l3.086 -6.253l3.086 6.253l6.9 1l-5 4.867l1.179 6.873l-6.158 -3.245"/>
    </g>

    <!-- 23. heart 36px (scale=1.5) -->
    <g transform="translate(455,368) rotate(-18,18,18) scale(1.5)">
      <path d="M19.5 12.572l-7.5 7.428l-7.5 -7.428a5 5 0 1 1 7.5 -6.566a5 5 0 1 1 7.5 6.572"/>
    </g>

    <!-- ── Row 5 (partial — raccord de tuile) ────────────── -->

    <!-- 24. award 36px (scale=1.5) -->
    <g transform="translate(72,443) rotate(-8,18,18) scale(1.5)">
      <path d="M6 9a6 6 0 1 0 12 0a6 6 0 1 0 -12 0"/>
      <path d="M12 15l3.4 5.89l1.598 -3.233l3.598 .232l-3.4 -5.889"/>
      <path d="M6.802 12l-3.4 5.89l3.598 -.233l1.598 3.232l3.4 -5.889"/>
    </g>

    <!-- 25. diamond 48px (scale=2) -->
    <g transform="translate(140,440) rotate(12,24,24) scale(2)">
      <path d="M6 5h12l3 5l-8.5 9.5a.7 .7 0 0 1 -1 0l-8.5 -9.5l3 -5"/>
      <path d="M10 12l-2 -2.2l.6 -1"/>
    </g>

    <!-- 26. seedling 44px (scale=1.833) -->
    <g transform="translate(250,442) rotate(-5,22,22) scale(1.833)">
      <path d="M12 10a6 6 0 0 0 -6 -6h-3v2a6 6 0 0 0 6 6h3"/>
      <path d="M12 14a6 6 0 0 1 6 -6h3v1a6 6 0 0 1 -6 6h-3"/>
      <path d="M12 20l0 -10"/>
    </g>

    <!-- 27. sparkle 36px (scale=1.5) -->
    <g transform="translate(348,443) rotate(18,18,18) scale(1.5)">
      <path d="M12 3c.375 0 .711 .231 .846 .581l1.65 4.29a2.85 2.85 0 0 0 1.632 1.633l4.291 1.65a.906 .906 0 0 1 0 1.692l-4.29 1.65a2.84 2.84 0 0 0 -1.633 1.632l-1.65 4.291a.906 .906 0 0 1 -1.692 0l-1.65 -4.29a2.84 2.84 0 0 0 -1.632 -1.633l-4.291 -1.65a.906 .906 0 0 1 0 -1.692l4.29 -1.65a2.84 2.84 0 0 0 1.633 -1.632l1.65 -4.291a.91 .91 0 0 1 .846 -.581"/>
    </g>

    <!-- 28. map-pin 48px (scale=2) -->
    <g transform="translate(420,440) rotate(-10,24,24) scale(2)">
      <path d="M9 11a3 3 0 1 0 6 0a3 3 0 0 0 -6 0"/>
      <path d="M17.657 16.657l-4.243 4.243a2 2 0 0 1 -2.827 0l-4.244 -4.243a8 8 0 1 1 11.314 0"/>
    </g>

  </g>
</svg>
